<?xml version="1.0" encoding="UTF-8" standalone="no"?>
<!DOCTYPE svg PUBLIC "-//W3C//DTD SVG 1.1//EN"
 "http://www.w3.org/Graphics/SVG/1.1/DTD/svg11.dtd">
<!-- Generated by graphviz version 2.40.1 (20161225.0304)
 -->
<!-- Title: G Pages: 1 -->
<svg width="1541pt" height="1046pt"
 viewBox="0.00 0.00 1541.00 1045.89" xmlns="http://www.w3.org/2000/svg" xmlns:xlink="http://www.w3.org/1999/xlink">
<g id="graph0" class="graph" transform="scale(1 1) rotate(0) translate(4 1041.89)">
<title>G</title>
<polygon fill="#ffffff" stroke="transparent" points="-4,4 -4,-1041.89 1537,-1041.89 1537,4 -4,4"/>
<g id="clust1" class="cluster">
<title>cluster_Llegenda</title>
<polygon fill="none" stroke="#000000" points="8,-770.8626 8,-1005.09 167,-1005.09 167,-770.8626 8,-770.8626"/>
</g>
<g id="clust2" class="cluster">
<title>cluster_Main</title>
<polygon fill="none" stroke="#000000" points="175,-8 175,-1029.89 1525,-1029.89 1525,-8 175,-8"/>
<text text-anchor="middle" x="850" y="-1013.29" font-family="Times,serif" font-size="14.00" fill="#000000">Main.jsx</text>
</g>
<g id="clust3" class="cluster">
<title>cluster_Lib</title>
<polygon fill="none" stroke="#000000" points="539,-319.6 539,-713.8626 909,-713.8626 909,-319.6 539,-319.6"/>
<text text-anchor="middle" x="724" y="-697.2626" font-family="Times,serif" font-size="14.00" fill="#000000">Lib.jsx</text>
</g>
<g id="clust4" class="cluster">
<title>cluster_Cap</title>
<polygon fill="none" stroke="#000000" points="183,-453.4313 183,-855.09 467,-855.09 467,-453.4313 183,-453.4313"/>
<text text-anchor="middle" x="325" y="-838.49" font-family="Times,serif" font-size="14.00" fill="#000000">Cap.jsx</text>
</g>
<g id="clust5" class="cluster">
<title>cluster_Cos</title>
<polygon fill="none" stroke="#000000" points="917,-16 917,-855.09 1517,-855.09 1517,-16 917,-16"/>
<text text-anchor="middle" x="1217" y="-838.49" font-family="Times,serif" font-size="14.00" fill="#000000">Cos,jsx</text>
</g>
<g id="clust7" class="cluster">
<title>cluster_Central</title>
<polygon fill="none" stroke="#000000" points="997,-24 997,-530.2313 1213,-530.2313 1213,-24 997,-24"/>
<text text-anchor="middle" x="1105" y="-513.6313" font-family="Times,serif" font-size="14.00" fill="#000000">Central.jsx</text>
</g>
<g id="clust8" class="cluster">
<title>cluster_Dreta</title>
<polygon fill="none" stroke="#000000" points="1221,-24 1221,-530.2313 1509,-530.2313 1509,-24 1221,-24"/>
<text text-anchor="middle" x="1365" y="-513.6313" font-family="Times,serif" font-size="14.00" fill="#000000">Dreta.jsx</text>
</g>
<!-- component -->
<g id="node1" class="node">
<title>component</title>
<polygon fill="none" stroke="#000000" points="126.2113,-997.09 47.7887,-997.09 47.7887,-961.09 126.2113,-961.09 126.2113,-997.09"/>
<text text-anchor="middle" x="87" y="-982.09" font-family="Times,serif" font-size="10.00" fill="#000000">COMPONENT</text>
<text text-anchor="middle" x="87" y="-970.09" font-family="Times,serif" font-size="10.00" fill="#000000">(props)</text>
</g>
<!-- function -->
<g id="node2" class="node">
<title>function</title>
<ellipse fill="none" stroke="#000000" cx="87" cy="-801.49" rx="34.7579" ry="22.7556"/>
<text text-anchor="middle" x="87" y="-804.49" font-family="Times,serif" font-size="10.00" fill="#000000">function</text>
<text text-anchor="middle" x="87" y="-792.49" font-family="Times,serif" font-size="10.00" fill="#000000">(props)</text>
</g>
<!-- component&#45;&gt;function -->
<g id="edge1" class="edge">
<title>component&#45;&gt;function</title>
<path fill="none" stroke="#000000" d="M69.5505,-960.8666C61.1841,-950.857 52.0477,-937.7266 47.674,-924.09 37.4594,-892.2424 52.6192,-855.7417 66.9815,-830.9066"/>
<polygon fill="#000000" stroke="#000000" points="69.9988,-832.6809 72.1883,-822.3148 64.0123,-829.0529 69.9988,-832.6809"/>
<text text-anchor="start" x="59.5005" y="-910.09" font-family="Times,serif" font-size="10.00" fill="#000000"> &#160;&#160;&#160;</text>
<text text-anchor="start" x="69.5005" y="-910.09" font-family="Times,serif" font-weight="bold" font-size="10.00" fill="#000000">state</text>
<text text-anchor="start" x="57.001" y="-900.09" font-family="Times,serif" font-size="10.00" fill="#000000"> &#160;&#160;&#160;</text>
<text text-anchor="start" x="67.001" y="-900.09" font-family="Times,serif" text-decoration="underline" font-size="10.00" fill="#000000">fState</text>
<text text-anchor="start" x="47" y="-890.09" font-family="Times,serif" font-size="10.00" fill="#000000"> &#160;&#160;&#160;function &#160;&#160;&#160;</text>
</g>
<!-- function&#45;&gt;component -->
<g id="edge2" class="edge">
<title>function&#45;&gt;component</title>
<path fill="none" stroke="#0000ff" stroke-width="2" d="M92.8168,-824.1039C98.3934,-848.7183 105.3673,-889.2287 101,-924.09 99.8855,-932.9868 97.7943,-942.5082 95.5616,-951.086"/>
<polygon fill="#0000ff" stroke="#0000ff" stroke-width="2" points="92.1188,-950.4043 92.8242,-960.9756 98.8651,-952.2717 92.1188,-950.4043"/>
<text text-anchor="middle" x="119.778" y="-906.09" font-family="Times,serif" font-size="10.00" fill="#0000ff">Return</text>
<text text-anchor="middle" x="119.778" y="-894.09" font-family="Times,serif" font-size="10.00" fill="#0000ff">Function</text>
</g>
<!-- main -->
<g id="node3" class="node">
<title>main</title>
<polygon fill="none" stroke="#000000" points="817,-997.09 763,-997.09 763,-961.09 817,-961.09 817,-997.09"/>
<text text-anchor="middle" x="790" y="-974.89" font-family="Times,serif" font-size="14.00" fill="#000000">MAIN</text>
</g>
<!-- cap -->
<g id="node4" class="node">
<title>cap</title>
<polygon fill="none" stroke="#000000" points="458.6334,-822.0919 191.3666,-822.0919 191.3666,-780.8881 458.6334,-780.8881 458.6334,-822.0919"/>
<text text-anchor="middle" x="325" y="-805.69" font-family="Times,serif" font-size="14.00" fill="#000000">CAP</text>
<text text-anchor="middle" x="325" y="-788.89" font-family="Times,serif" font-size="14.00" fill="#000000"> &#160;&#160;&#160;&#160;&#160;&#160;&#160;(cQuery,fSetQuery,fSetListYtsrVideos)</text>
</g>
<!-- main&#45;&gt;cap -->
<g id="edge3" class="edge">
<title>main&#45;&gt;cap</title>
<path fill="none" stroke="#000000" d="M762.8409,-968.8752C706.7599,-947.7641 574.1007,-897.7303 463,-855.09 438.325,-845.6198 411.2066,-835.1092 387.5891,-825.922"/>
<polygon fill="#000000" stroke="#000000" points="388.6307,-822.5717 378.0421,-822.2063 386.0917,-829.0951 388.6307,-822.5717"/>
<text text-anchor="start" x="651.1669" y="-912.49" font-family="Times,serif" font-size="14.00" fill="#000000"> &#160;&#160;&#160;&#160;&#160;&#160;&#160;</text>
<text text-anchor="start" x="679.1669" y="-912.49" font-family="Times,serif" font-weight="bold" font-size="14.00" fill="#000000">cQuery</text>
<text text-anchor="start" x="643" y="-898.49" font-family="Times,serif" font-size="14.00" fill="#000000"> &#160;&#160;&#160;&#160;&#160;&#160;&#160;</text>
<text text-anchor="start" x="671" y="-898.49" font-family="Times,serif" text-decoration="underline" font-size="14.00" fill="#000000">fSetQuery</text>
<text text-anchor="start" x="671.7651" y="-884.49" font-family="Times,serif" font-size="14.00" fill="#000000"> &#160;&#160;&#160;&#160;&#160;&#160;&#160;</text>
</g>
<!-- cos -->
<g id="node5" class="node">
<title>cos</title>
<polygon fill="none" stroke="#000000" points="1224.5212,-822.0919 925.4788,-822.0919 925.4788,-780.8881 1224.5212,-780.8881 1224.5212,-822.0919"/>
<text text-anchor="middle" x="1075" y="-805.69" font-family="Times,serif" font-size="14.00" fill="#000000">COS</text>
<text text-anchor="middle" x="1075" y="-788.89" font-family="Times,serif" font-size="14.00" fill="#000000"> &#160;&#160;&#160;&#160;&#160;&#160;&#160;(oSelectedVideo,oLlistaVideos,fSetterVideo)</text>
</g>
<!-- main&#45;&gt;cos -->
<g id="edge5" class="edge">
<title>main&#45;&gt;cos</title>
<path fill="none" stroke="#000000" d="M817.3012,-975.4617C870.6798,-967.8977 986.3402,-949.0518 1017,-924.09 1045.6224,-900.787 1060.9387,-860.0562 1068.5127,-831.9766"/>
<polygon fill="#000000" stroke="#000000" points="1071.9116,-832.8119 1070.9631,-822.2596 1065.1241,-831.1002 1071.9116,-832.8119"/>
<text text-anchor="start" x="1075.4362" y="-905.49" font-family="Times,serif" font-weight="bold" font-size="14.00" fill="#000000"> &#160;&#160;&#160;&#160;&#160;&#160;&#160;oListYtsrVideos</text>
<text text-anchor="start" x="1049" y="-891.49" font-family="Times,serif" font-weight="bold" font-size="14.00" fill="#000000"> &#160;&#160;&#160;&#160;&#160;&#160;&#160;oSelecVideoYtsrList &#160;&#160;&#160;&#160;&#160;&#160;&#160;</text>
</g>
<!-- peu -->
<g id="node6" class="node">
<title>peu</title>
<polygon fill="none" stroke="#000000" points="817,-822.0919 763,-822.0919 763,-780.8881 817,-780.8881 817,-822.0919"/>
<text text-anchor="middle" x="790" y="-805.69" font-family="Times,serif" font-size="14.00" fill="#000000">PEU</text>
<text text-anchor="middle" x="790" y="-788.89" font-family="Times,serif" font-size="14.00" fill="#000000">(...)</text>
</g>
<!-- main&#45;&gt;peu -->
<g id="edge7" class="edge">
<title>main&#45;&gt;peu</title>
<path fill="none" stroke="#000000" d="M790,-961.0834C790,-930.9046 790,-869.7697 790,-832.5431"/>
<polygon fill="#000000" stroke="#000000" points="793.5001,-832.2705 790,-822.2705 786.5001,-832.2706 793.5001,-832.2705"/>
</g>
<!-- cap&#45;&gt;main -->
<g id="edge4" class="edge">
<title>cap&#45;&gt;main</title>
<path fill="none" stroke="#0000ff" stroke-width="2" d="M335.2838,-822.4321C350.3247,-850.6239 381.1403,-900.0161 422.9144,-924.09 478.6768,-956.2251 670.9012,-971.6969 752.6901,-976.9449"/>
<polygon fill="#0000ff" stroke="#0000ff" stroke-width="2" points="752.5889,-980.4453 762.7879,-977.5766 753.026,-973.4589 752.5889,-980.4453"/>
<text text-anchor="middle" x="476.0428" y="-898.89" font-family="Times,serif" font-size="14.00" fill="#0000ff">fSetListYtsrVideos</text>
</g>
<!-- About -->
<g id="node7" class="node">
<title>About</title>
<polygon fill="none" stroke="#000000" points="529,-669.6469 475,-669.6469 475,-633.6469 529,-633.6469 529,-669.6469"/>
<text text-anchor="middle" x="502" y="-647.4469" font-family="Times,serif" font-size="14.00" fill="#000000">About</text>
</g>
<!-- cap&#45;&gt;About -->
<g id="edge20" class="edge">
<title>cap&#45;&gt;About</title>
<path fill="none" stroke="#000000" d="M374.2031,-780.7391C405.0762,-765.7625 444.0066,-743.0567 471,-713.8626 480.1529,-703.9635 487.2209,-690.8556 492.2806,-679.2248"/>
<polygon fill="#000000" stroke="#000000" points="495.5454,-680.4876 496.0602,-669.9053 489.0585,-677.8568 495.5454,-680.4876"/>
</g>
<!-- OnSubmit -->
<g id="node9" class="node">
<title>OnSubmit</title>
<ellipse fill="none" stroke="#000000" cx="842" cy="-651.6469" rx="58.6697" ry="29.3315"/>
<text text-anchor="middle" x="842" y="-655.8469" font-family="Times,serif" font-size="14.00" fill="#000000">OnSubmit</text>
<text text-anchor="middle" x="842" y="-639.0469" font-family="Times,serif" font-size="14.00" fill="#000000">f(SetQuery)</text>
</g>
<!-- cap&#45;&gt;OnSubmit -->
<g id="edge19" class="edge">
<title>cap&#45;&gt;OnSubmit</title>
<path fill="none" stroke="#000000" d="M407.0454,-780.8566C425.3565,-776.9311 444.7555,-773.2951 463,-770.8626 510.1899,-764.5708 630.8602,-772.5923 677,-760.8626 723.4284,-749.0595 734.357,-740.7576 774,-713.8626 786.147,-705.6217 798.3202,-695.298 808.941,-685.4423"/>
<polygon fill="#000000" stroke="#000000" points="811.5332,-687.8075 816.3776,-678.3851 806.7146,-682.7299 811.5332,-687.8075"/>
</g>
<!-- MenuIcon -->
<g id="node12" class="node">
<title>MenuIcon</title>
<ellipse fill="none" stroke="#000000" cx="243" cy="-479.4313" rx="50.9464" ry="18"/>
<text text-anchor="middle" x="243" y="-475.2313" font-family="Times,serif" font-size="14.00" fill="#000000">MenuIcon</text>
</g>
<!-- cap&#45;&gt;MenuIcon -->
<g id="edge16" class="edge">
<title>cap&#45;&gt;MenuIcon</title>
<path fill="none" stroke="#000000" d="M280.2716,-780.6913C266.5527,-771.0713 255,-758.0239 255,-741.3626 255,-741.3626 255,-741.3626 255,-571.2313 255,-549.7335 251.7244,-525.641 248.596,-507.5332"/>
<polygon fill="#000000" stroke="#000000" points="252.0277,-506.8416 246.7969,-497.628 245.1404,-508.0926 252.0277,-506.8416"/>
</g>
<!-- fetchData -->
<g id="node13" class="node">
<title>fetchData</title>
<ellipse fill="none" stroke="#000000" cx="360" cy="-479.4313" rx="48.6307" ry="18"/>
<text text-anchor="middle" x="360" y="-475.2313" font-family="Times,serif" font-size="14.00" fill="#000000">fetchData</text>
</g>
<!-- cap&#45;&gt;fetchData -->
<g id="edge17" class="edge">
<title>cap&#45;&gt;fetchData</title>
<path fill="none" stroke="#000000" d="M303.2195,-780.7096C294.2861,-769.9665 286,-756.0446 286,-741.3626 286,-741.3626 286,-741.3626 286,-571.2313 286,-555.3 313.3553,-524.8059 334.8017,-503.3466"/>
<polygon fill="#000000" stroke="#000000" points="337.418,-505.6824 342.0867,-496.1717 332.506,-500.6952 337.418,-505.6824"/>
</g>
<!-- cos&#45;&gt;main -->
<g id="edge6" class="edge">
<title>cos&#45;&gt;main</title>
<path fill="none" stroke="#0000ff" stroke-width="2" d="M1014.696,-822.1656C955.8769,-842.651 873.4302,-872.3367 860.6156,-882.09 836.0699,-900.7718 816.2924,-930.2981 803.9802,-951.8714"/>
<polygon fill="#0000ff" stroke="#0000ff" stroke-width="2" points="800.7838,-950.4194 799.0134,-960.8653 806.9115,-953.8034 800.7838,-950.4194"/>
<text text-anchor="middle" x="936.1922" y="-907.29" font-family="Times,serif" font-size="14.00" fill="#0000ff">fSetterVideo</text>
<text text-anchor="middle" x="936.1922" y="-890.49" font-family="Times,serif" font-size="14.00" fill="#0000ff">fSetterSelecVideoYtsrList)</text>
</g>
<!-- esquerra -->
<g id="node14" class="node">
<title>esquerra</title>
<polygon fill="none" stroke="#000000" points="988.9109,-497.4313 925.0891,-497.4313 925.0891,-461.4313 988.9109,-461.4313 988.9109,-497.4313"/>
<text text-anchor="middle" x="957" y="-475.2313" font-family="Times,serif" font-size="14.00" fill="#000000">esquerra</text>
</g>
<!-- cos&#45;&gt;esquerra -->
<g id="edge22" class="edge">
<title>cos&#45;&gt;esquerra</title>
<path fill="none" stroke="#000000" d="M1008.4414,-780.8729C993.0085,-771.8243 981,-759.0884 981,-741.3626 981,-741.3626 981,-741.3626 981,-571.2313 981,-549.2338 974.4699,-525.2073 968.2221,-507.2538"/>
<polygon fill="#000000" stroke="#000000" points="971.4498,-505.8892 964.7259,-497.7014 964.8763,-508.2952 971.4498,-505.8892"/>
</g>
<!-- central -->
<g id="node15" class="node">
<title>central</title>
<polygon fill="none" stroke="#000000" points="1061.0857,-497.4313 1006.9143,-497.4313 1006.9143,-461.4313 1061.0857,-461.4313 1061.0857,-497.4313"/>
<text text-anchor="middle" x="1034" y="-475.2313" font-family="Times,serif" font-size="14.00" fill="#000000">central</text>
</g>
<!-- cos&#45;&gt;central -->
<g id="edge23" class="edge">
<title>cos&#45;&gt;central</title>
<path fill="none" stroke="#000000" d="M1048.5081,-780.6177C1038.2827,-770.146 1029,-756.4774 1029,-741.3626 1029,-741.3626 1029,-741.3626 1029,-571.2313 1029,-549.983 1030.3521,-526.0092 1031.6501,-507.8905"/>
<polygon fill="#000000" stroke="#000000" points="1035.1563,-507.9385 1032.418,-497.7036 1028.1761,-507.4122 1035.1563,-507.9385"/>
<text text-anchor="middle" x="1073.317" y="-647.4469" font-family="Times,serif" font-size="14.00" fill="#000000">oSelectedVideo</text>
</g>
<!-- dreta -->
<g id="node16" class="node">
<title>dreta</title>
<polygon fill="none" stroke="#000000" points="1292,-497.4313 1238,-497.4313 1238,-461.4313 1292,-461.4313 1292,-497.4313"/>
<text text-anchor="middle" x="1265" y="-475.2313" font-family="Times,serif" font-size="14.00" fill="#000000">dreta</text>
</g>
<!-- cos&#45;&gt;dreta -->
<g id="edge24" class="edge">
<title>cos&#45;&gt;dreta</title>
<path fill="none" stroke="#000000" d="M1127.6941,-780.6377C1142.1854,-771.2842 1154,-758.4261 1154,-741.3626 1154,-741.3626 1154,-741.3626 1154,-571.2313 1154,-537.824 1191.3485,-551.6334 1217,-530.2313 1225.9878,-522.7324 1235.0179,-513.6715 1242.7821,-505.2906"/>
<polygon fill="#000000" stroke="#000000" points="1245.4021,-507.6116 1249.5192,-497.8494 1240.2129,-502.9135 1245.4021,-507.6116"/>
<text text-anchor="middle" x="1193.27" y="-647.4469" font-family="Times,serif" font-size="14.00" fill="#000000">oLlistaVideos</text>
</g>
<!-- YtSearch -->
<g id="node8" class="node">
<title>YtSearch</title>
<ellipse fill="none" stroke="#000000" cx="656" cy="-651.6469" rx="109.3645" ry="29.3315"/>
<text text-anchor="middle" x="656" y="-655.8469" font-family="Times,serif" font-size="14.00" fill="#000000">Lib.YtSearch</text>
<text text-anchor="middle" x="656" y="-639.0469" font-family="Times,serif" font-size="14.00" fill="#000000">(qq, fSetListYtsrVideos)</text>
</g>
<!-- ytsr -->
<g id="node10" class="node">
<title>ytsr</title>
<ellipse fill="none" stroke="#000000" cx="679" cy="-357.0156" rx="27" ry="18"/>
<text text-anchor="middle" x="679" y="-352.8156" font-family="Times,serif" font-size="14.00" fill="#000000">ytsr</text>
</g>
<!-- YtSearch&#45;&gt;ytsr -->
<g id="edge14" class="edge">
<title>YtSearch&#45;&gt;ytsr</title>
<path fill="none" stroke="#000000" d="M675.5098,-622.5759C686.0589,-602.9141 694.5985,-577.0243 682,-557.2313 666.7793,-533.3185 639.4395,-554.144 624.2188,-530.2313 605.8905,-501.4362 615.4984,-486.4319 624.2188,-453.4313 631.2248,-426.9185 647.3943,-400.0601 660.3609,-381.4488"/>
<polygon fill="#000000" stroke="#000000" points="663.2489,-383.4274 666.2314,-373.261 657.56,-379.3486 663.2489,-383.4274"/>
<text text-anchor="middle" x="687.3906" y="-483.6313" font-family="Times,serif" font-size="14.00" fill="#000000">ytsr</text>
<text text-anchor="middle" x="687.3906" y="-466.8313" font-family="Times,serif" font-size="14.00" fill="#000000">(`${qq}`, { pages: 1 })</text>
</g>
<!-- YtSearch&#45;&gt;fetchData -->
<g id="edge13" class="edge">
<title>YtSearch&#45;&gt;fetchData</title>
<path fill="none" stroke="#0000ff" stroke-width="2" d="M621.9986,-623.6158C596.9299,-603.6962 561.5024,-577.069 528,-557.2313 487.1718,-533.0557 437.5671,-510.8916 402.8839,-496.458"/>
<polygon fill="#0000ff" stroke="#0000ff" stroke-width="2" points="404.0961,-493.172 393.5168,-492.5967 401.4282,-499.6437 404.0961,-493.172"/>
<text text-anchor="middle" x="624.0428" y="-567.0313" font-family="Times,serif" font-size="14.00" fill="#0000ff">fSetListYtsrVideos</text>
</g>
<!-- input\nsearchIcon -->
<g id="node11" class="node">
<title>input\nsearchIcon</title>
<ellipse fill="none" stroke="#000000" cx="847" cy="-357.0156" rx="54.3636" ry="29.3315"/>
<text text-anchor="middle" x="847" y="-361.2156" font-family="Times,serif" font-size="14.00" fill="#000000">input</text>
<text text-anchor="middle" x="847" y="-344.4156" font-family="Times,serif" font-size="14.00" fill="#000000">searchIcon</text>
</g>
<!-- OnSubmit&#45;&gt;input\nsearchIcon -->
<g id="edge8" class="edge">
<title>OnSubmit&#45;&gt;input\nsearchIcon</title>
<path fill="none" stroke="#000000" d="M872.6984,-626.2286C886.6107,-611.7949 900,-592.4039 900,-571.2313 900,-571.2313 900,-571.2313 900,-423.9313 900,-410.9512 893.7961,-399.0201 885.6334,-388.9397"/>
<polygon fill="#000000" stroke="#000000" points="888.0322,-386.3723 878.7483,-381.2674 882.8224,-391.0476 888.0322,-386.3723"/>
</g>
<!-- ytsr&#45;&gt;YtSearch -->
<g id="edge15" class="edge">
<title>ytsr&#45;&gt;YtSearch</title>
<path fill="none" stroke="#0000ff" stroke-width="2" d="M704.6859,-363.3706C732.5176,-371.976 773,-390.2773 773,-423.9313 773,-571.2313 773,-571.2313 773,-571.2313 773,-594.8469 756.6111,-612.0497 736.1009,-624.3319"/>
<polygon fill="#0000ff" stroke="#0000ff" stroke-width="2" points="734.1608,-621.4048 727.0943,-629.2988 737.5412,-627.5345 734.1608,-621.4048"/>
<text text-anchor="middle" x="827.0428" y="-475.2313" font-family="Times,serif" font-size="14.00" fill="#0000ff">fSetListYtsrVideos</text>
</g>
<!-- fetchData&#45;&gt;cap -->
<g id="edge18" class="edge">
<title>fetchData&#45;&gt;cap</title>
<path fill="none" stroke="#0000ff" stroke-width="2" d="M348.0893,-497.2151C337.273,-515.1142 323,-543.9098 323,-571.2313 323,-741.3626 323,-741.3626 323,-741.3626 323,-750.8484 323.2517,-761.1713 323.5766,-770.5434"/>
<polygon fill="#0000ff" stroke="#0000ff" stroke-width="2" points="320.0825,-770.7678 323.9649,-780.6257 327.0773,-770.4984 320.0825,-770.7678"/>
<text text-anchor="middle" x="377.0428" y="-647.4469" font-family="Times,serif" font-size="14.00" fill="#0000ff">fSetListYtsrVideos</text>
</g>
<!-- fetchData&#45;&gt;YtSearch -->
<g id="edge21" class="edge">
<title>fetchData&#45;&gt;YtSearch</title>
<path fill="none" stroke="#000000" d="M353.7501,-497.4286C346.9892,-520.5074 339.6767,-560.4946 359.9144,-585.2313 412.4813,-649.4842 462.114,-603.5452 543,-622.2313 551.3235,-624.1542 559.9686,-626.241 568.604,-628.3859"/>
<polygon fill="#000000" stroke="#000000" points="567.7807,-631.7877 578.3318,-630.8264 569.4841,-624.9981 567.7807,-631.7877"/>
<text text-anchor="start" x="406.4446" y="-573.6313" font-family="Times,serif" font-size="14.00" fill="#000000"> &#160;&#160;&#160;&#160;&#160;&#160;&#160;</text>
<text text-anchor="start" x="434.4446" y="-573.6313" font-family="Times,serif" font-weight="bold" font-size="14.00" fill="#000000">cQuery</text>
<text text-anchor="start" x="359" y="-559.6313" font-family="Times,serif" font-size="14.00" fill="#000000"> &#160;&#160;&#160;&#160;&#160;&#160;&#160;fSetListYtsrVideos &#160;&#160;&#160;&#160;&#160;&#160;&#160;</text>
</g>
<!-- VideoDetail -->
<g id="node17" class="node">
<title>VideoDetail</title>
<polygon fill="none" stroke="#000000" points="1089.4204,-68 1004.5796,-68 1004.5796,-32 1089.4204,-32 1089.4204,-68"/>
<text text-anchor="middle" x="1047" y="-45.8" font-family="Times,serif" font-size="14.00" fill="#000000">VideoDetail</text>
</g>
<!-- central&#45;&gt;VideoDetail -->
<g id="edge9" class="edge">
<title>central&#45;&gt;VideoDetail</title>
<path fill="none" stroke="#000000" d="M1033,-460.9373C1032.5,-450.1476 1032,-436.2726 1032,-423.9313 1032,-423.9313 1032,-423.9313 1032,-105.5 1032,-96.3174 1033.9373,-86.5669 1036.4194,-77.8427"/>
<polygon fill="#000000" stroke="#000000" points="1039.8008,-78.7587 1039.5,-68.1681 1033.1308,-76.6347 1039.8008,-78.7587"/>
<text text-anchor="middle" x="1076.317" y="-231.6" font-family="Times,serif" font-size="14.00" fill="#000000">oSelectedVideo</text>
</g>
<!-- RelatedVideos -->
<g id="node18" class="node">
<title>RelatedVideos</title>
<polygon fill="none" stroke="#000000" points="1205.4189,-68 1106.5811,-68 1106.5811,-32 1205.4189,-32 1205.4189,-68"/>
<text text-anchor="middle" x="1156" y="-45.8" font-family="Times,serif" font-size="14.00" fill="#000000">RelatedVideos</text>
</g>
<!-- central&#45;&gt;RelatedVideos -->
<g id="edge10" class="edge">
<title>central&#45;&gt;RelatedVideos</title>
<path fill="none" stroke="#000000" d="M1061.2977,-472.9209C1097.5345,-463.469 1157,-444.7816 1157,-423.9313 1157,-423.9313 1157,-423.9313 1157,-105.5 1157,-96.7303 1156.8736,-87.1825 1156.7108,-78.5178"/>
<polygon fill="#000000" stroke="#000000" points="1160.2096,-78.4226 1156.5,-68.4985 1153.2112,-78.5699 1160.2096,-78.4226"/>
<text text-anchor="middle" x="1162.25" y="-231.6" font-family="Times,serif" font-size="14.00" fill="#000000">...</text>
</g>
<!-- dreta&#45;&gt;cos -->
<g id="edge25" class="edge">
<title>dreta&#45;&gt;cos</title>
<path fill="none" stroke="#0000ff" stroke-width="2" d="M1266.2656,-497.7094C1267.4375,-516.2288 1269,-545.7071 1269,-571.2313 1269,-741.3626 1269,-741.3626 1269,-741.3626 1269,-757.0607 1245.5316,-769.1126 1214.9199,-778.1556"/>
<polygon fill="#0000ff" stroke="#0000ff" stroke-width="2" points="1213.8994,-774.8066 1205.2084,-780.8662 1215.7813,-781.5489 1213.8994,-774.8066"/>
<text text-anchor="middle" x="1304.763" y="-647.4469" font-family="Times,serif" font-size="14.00" fill="#0000ff">fSetterVideo</text>
</g>
<!-- ListYtsrVideos -->
<g id="node19" class="node">
<title>ListYtsrVideos</title>
<ellipse fill="none" stroke="#000000" cx="1347" cy="-50" rx="70.077" ry="18"/>
<text text-anchor="middle" x="1347" y="-45.8" font-family="Times,serif" font-size="14.00" fill="#000000">ListYtsrVideos</text>
</g>
<!-- dreta&#45;&gt;ListYtsrVideos -->
<g id="edge11" class="edge">
<title>dreta&#45;&gt;ListYtsrVideos</title>
<path fill="none" stroke="#000000" d="M1256,-461.4056C1251.5,-450.7721 1247,-436.8971 1247,-423.9313 1247,-423.9313 1247,-423.9313 1247,-105.5 1247,-85.5357 1262.4261,-72.6923 1281.1608,-64.4559"/>
<polygon fill="#000000" stroke="#000000" points="1282.5349,-67.6767 1290.5706,-60.7716 1279.9828,-61.1585 1282.5349,-67.6767"/>
<text text-anchor="middle" x="1302.5898" y="-240" font-family="Times,serif" font-size="14.00" fill="#000000">oLlistaVideos</text>
<text text-anchor="middle" x="1302.5898" y="-223.2" font-family="Times,serif" font-size="14.00" fill="#000000">(oVideosPerLlistar)</text>
</g>
<!-- ListYtsrVideos&#45;&gt;dreta -->
<g id="edge12" class="edge">
<title>ListYtsrVideos&#45;&gt;dreta</title>
<path fill="none" stroke="#0000ff" stroke-width="2" d="M1372.1511,-67.0382C1383.3257,-76.7692 1394,-90.096 1394,-105.5 1394,-423.9313 1394,-423.9313 1394,-423.9313 1394,-444.1298 1339.9594,-461.4318 1301.8327,-471.1252"/>
<polygon fill="#0000ff" stroke="#0000ff" stroke-width="2" points="1300.9144,-467.7467 1292.0426,-473.5382 1302.5897,-474.5433 1300.9144,-467.7467"/>
<text text-anchor="middle" x="1447.2539" y="-240" font-family="Times,serif" font-size="14.00" fill="#0000ff">fSetterVideo</text>
<text text-anchor="middle" x="1447.2539" y="-223.2" font-family="Times,serif" font-size="14.00" fill="#0000ff">(fClickedVideoID)</text>
</g>
</g>
</svg>
